# xmcd
#
# Track frame offsets:
#	182
#	16182
#	34250
#	48562
#	63927
#	79972
#	97475
#	111505
#	126082
#	137375
#	158890
#	174495
#	191395
#	204947
#	220167
#
# Disc length: 3173 seconds
#
# Revision: 1
# Processed by: cddbd v1.5.1PL0 Copyright (c) Steve Scherf et al.
# Submitted via: audiograbber 1.83.01
#
DISCID=d20c630f
DTITLE=Music Maestro - Hot Country Hits Vol. 1 - MM6002
DYEAR=1900
DGENRE=Karaoke
TTITLE0=Cyrus, Billy Ray - Achy Breaky Heart
TTITLE1=Judd, Wynonna - No One Else On Earth
TTITLE2=McBride, Martina - Cheap Whiskey
TTITLE3=Forester Sisters, The - Men
TTITLE4=Strait, George - I Cross My Heart
TTITLE5=Tucker, Tanya - Some Kind Of Trouble
TTITLE6=Chesnutt, Mark - Bubba Shot The Jukebox
TTITLE7=Carpenter, Mary Chapin - I Feel Lucky
TTITLE8=Jackson, Alan - She's Got The Rhythm
TTITLE9=Morgan, Lorrie - Something In Red
TTITLE10=Black, Clint - We Tell Ourselves
TTITLE11=Bogguss, Suzy - Aces
TTITLE12=Jackson, Alan - Don't Rock The Jukebox
TTITLE13=Wright, Michelle - One Time Around
TTITLE14=Bogguss, Suzy - Letting Go
EXTD=
EXTT0=
EXTT1=
EXTT2=
EXTT3=
EXTT4=
EXTT5=
EXTT6=
EXTT7=
EXTT8=
EXTT9=
EXTT10=
EXTT11=
EXTT12=
EXTT13=
EXTT14=
PLAYORDER=
